<svg xmlns="http://www.w3.org/2000/svg" xmlns:xlink="http://www.w3.org/1999/xlink" width="194" height="52" viewBox="0 0 194 52">
  <defs>
    <linearGradient id="linear-gradient" x1="0.5" x2="0.5" y2="1" gradientUnits="objectBoundingBox">
      <stop offset="0" stop-color="#b69be8"/>
      <stop offset="0" stop-color="#ff9e6a"/>
      <stop offset="1" stop-color="#ff9090"/>
      <stop offset="1" stop-color="#f78585"/>
    </linearGradient>
  </defs>
  <g id="Group_63" data-name="Group 63" transform="translate(-160 -69)">
    <text id="Gavel" transform="translate(160 110)" fill="#2e1c3c" font-size="41" font-family="PirataOne-Regular, Pirata One"><tspan x="0" y="0">Gavel</tspan></text>
    <text id="Bay" transform="translate(303 109)" fill="#2e1c3c" font-size="40" font-family="PirataOne-Regular, Pirata One"><tspan x="0" y="0">Bay</tspan></text>
    <path id="Exclusion_1" data-name="Exclusion 1" d="M22.5,45a22.429,22.429,0,1,1,8.467-1.648A22.425,22.425,0,0,1,22.5,45Zm-.465-26.318-4.012,4.012.012.007A62.8,62.8,0,0,1,26,29.2a47.107,47.107,0,0,1,5.894,7.369,2.542,2.542,0,0,0,3.6,0l.417-.417.02-.021.02-.021a2.544,2.544,0,0,0-.04-3.555A46.7,46.7,0,0,1,28.819,26.8,75.781,75.781,0,0,1,22.035,18.682ZM5.522,20.434a.437.437,0,0,0-.3.16,1.621,1.621,0,0,0,0,2.293l5.35,5.351a3.528,3.528,0,0,0,1.9.9.491.491,0,0,0,.37-.127c.137-.143.145-.4.023-.774a1.765,1.765,0,0,1,.076-1.613c.127-.237.21-.394-.076-.68l-5.35-5.35a1.939,1.939,0,0,1-.912.284,1.087,1.087,0,0,1-.648-.222L5.871,20.6A.656.656,0,0,0,5.522,20.434ZM19.17,9.608a2.526,2.526,0,0,0-1.8.745L9.5,18.223a2.542,2.542,0,0,0,0,3.6l2.519,2.519a2.542,2.542,0,0,0,3.6,0l7.869-7.87.021-.021.021-.021a2.544,2.544,0,0,0-.042-3.554l-2.519-2.518A2.526,2.526,0,0,0,19.17,9.608Zm1.143-4.22a.629.629,0,0,0-.537.2.55.55,0,0,0-.033.483,1.94,1.94,0,0,1-.1,1.3c-.129.37-.23.662.1.99l5.349,5.351a.538.538,0,0,0,.373.2.822.822,0,0,0,.344-.115l.1-.049a1.61,1.61,0,0,1,.714-.163,2.614,2.614,0,0,1,.76.127,1.443,1.443,0,0,0,.41.072.461.461,0,0,0,.347-.123.528.528,0,0,0,.119-.383,3.459,3.459,0,0,0-.877-1.859l-5.351-5.35A2.879,2.879,0,0,0,20.313,5.388Z" transform="translate(248 72)" fill="url(#linear-gradient)"/>
  </g>
</svg>
