<svg xmlns="http://www.w3.org/2000/svg" width="18.688" height="22" viewBox="0 0 18.688 22">
  <g id="profile" transform="translate(-1 0.955)">
    <path id="Path_25" data-name="Path 25" d="M12.013,14H8.675A6.683,6.683,0,0,0,2,20.675a.834.834,0,0,0,.58.8,27.775,27.775,0,0,0,7.764.874,27.775,27.775,0,0,0,7.764-.874.834.834,0,0,0,.58-.8A6.683,6.683,0,0,0,12.013,14Z" transform="translate(0 -2.311)" fill="none" stroke="#2e1c3c" stroke-width="2"/>
    <path id="Path_26" data-name="Path 26" d="M11.089,10.02c2.587,0,4.589-2.9,4.589-5.386a4.589,4.589,0,1,0-9.178,0C6.5,7.125,8.5,10.02,11.089,10.02Z" transform="translate(-0.745)" fill="none" stroke="#2e1c3c" stroke-width="2"/>
  </g>
</svg>
